<?xml version="1.0" encoding="utf-8"?>
<!-- Generator: Adobe Illustrator 28.0.0, SVG Export Plug-In . SVG Version: 6.00 Build 0)  -->
<svg version="1.1" id="Capa_1" xmlns="http://www.w3.org/2000/svg" xmlns:xlink="http://www.w3.org/1999/xlink" x="0px" y="0px"
	 viewBox="0 0 800 800" style="enable-background:new 0 0 800 800;" xml:space="preserve">
<style type="text/css">
	.st0{fill:#360170;}
</style>
<path class="st0" d="M639.8,600.2l-39.6,39.6c-19.5,19.5-51.2,19.5-70.7,0L160.2,270.5c-19.5-19.5-19.5-51.2,0-70.7l39.6-39.6
	c19.5-19.5,51.2-19.5,70.7,0l369.3,369.3C659.3,549,659.3,580.6,639.8,600.2z"/>
<path class="st0" d="M199.8,639.8l-39.6-39.6c-19.5-19.5-19.5-51.2,0-70.7l369.3-369.3c19.5-19.5,51.2-19.5,70.7,0l39.6,39.6
	c19.5,19.5,19.5,51.2,0,70.7L270.5,639.8C251,659.3,219.4,659.3,199.8,639.8z"/>
</svg>
