<?xml version="1.0" encoding="utf-8"?>
<!-- Generator: Adobe Illustrator 28.0.0, SVG Export Plug-In . SVG Version: 6.00 Build 0)  -->
<svg version="1.1" id="Capa_1" xmlns="http://www.w3.org/2000/svg" xmlns:xlink="http://www.w3.org/1999/xlink" x="0px" y="0px"
	 viewBox="0 0 640 640" style="enable-background:new 0 0 640 640;" xml:space="preserve">
<style type="text/css">
	.st0{fill:#360170;}
</style>
<path class="st0" d="M180,543.9h-79.7c-11,0-20-9-20-20V362.1c0-11,9-20,20-20H180c11,0,20,9,20,20v161.7
	C200,534.9,191,543.9,180,543.9z"/>
<path class="st0" d="M359.9,546.9h-79.7c-11,0-20-9-20-20V249.8c0-11,9-20,20-20h79.7c11,0,20,9,20,20v277.1
	C379.9,537.9,370.9,546.9,359.9,546.9z"/>
<path class="st0" d="M539.7,546.9H460c-11,0-20-9-20-20V113.1c0-11,9-20,20-20h79.7c11,0,20,9,20,20v413.7
	C559.7,537.9,550.8,546.9,539.7,546.9z"/>
</svg>
