<?xml version="1.0" encoding="utf-8"?>
<!-- Generator: Adobe Illustrator 28.0.0, SVG Export Plug-In . SVG Version: 6.00 Build 0)  -->
<svg version="1.1" id="Capa_1" xmlns="http://www.w3.org/2000/svg" xmlns:xlink="http://www.w3.org/1999/xlink" x="0px" y="0px"
	 viewBox="0 0 640 640" style="enable-background:new 0 0 640 640;" xml:space="preserve">
<style type="text/css">
	.st0{fill:#360170;stroke:#360170;stroke-width:25;stroke-miterlimit:10;}
</style>
<path class="st0" d="M535.6,177.1l11.7-38.4c4.5-14.7,20.1-23,34.9-18.5c14.7,4.5,23,20.1,18.5,34.9L568,261.9
	c-4.5,14.7-20.1,23-34.8,18.5l-106.8-32.7c-14.8-4.2-23.5-19.6-19.3-34.4s19.6-23.5,34.4-19.3c0.4,0.1,0.8,0.2,1.2,0.4l46.7,14.3
	C426.8,113.6,299,87.3,204,150c-34.6,22.8-61.5,55.5-77.2,93.9l-7.3,17.7c-5.5,14.4-21.6,21.7-36,16.2s-21.7-21.6-16.2-36
	c0.2-0.5,0.4-0.9,0.6-1.4l7.3-17.7C130,88.9,282.9,24.8,416.8,79.7C465.3,99.6,506.7,133.5,535.6,177.1z M102.3,473.4L93.2,510
	c-3.4,15-18.3,24.5-33.4,21.1c-15-3.4-24.5-18.3-21.1-33.4c0.1-0.4,0.2-0.8,0.3-1.3l27-108.3c3.7-15,18.8-24.1,33.8-20.4
	c0.5,0.1,1,0.3,1.5,0.4l106.9,26.6c15,3.7,24.1,18.9,20.3,33.9c-3.7,15-18.9,24.1-33.9,20.3l-49.9-12.4
	c62.3,95.3,190,122.1,285.3,59.8c39.7-25.9,69.2-64.7,83.6-109.9c4.7-14.7,20.4-22.8,35.1-18.1s22.8,20.4,18.1,35.1
	c-23.5,73.8-78.5,133.4-150.2,162.8C303.1,612.9,172.4,574.3,102.3,473.4L102.3,473.4z"/>
</svg>
