<?xml version="1.0" encoding="utf-8"?>
<!-- Generator: Adobe Illustrator 28.0.0, SVG Export Plug-In . SVG Version: 6.00 Build 0)  -->
<svg version="1.1" id="Capa_1" xmlns="http://www.w3.org/2000/svg" xmlns:xlink="http://www.w3.org/1999/xlink" x="0px" y="0px"
	 viewBox="0 0 800 800" style="enable-background:new 0 0 800 800;" xml:space="preserve">
<style type="text/css">
	.st0{fill:#360170;}
</style>
<path class="st0" d="M458.1,119.2c20.1,10.1,23.8,32.2,23.8,45.6v470.5c0,13.5-3.7,35.4-23.8,45.6c-21.4,10.8-41.3-1.3-51.4-10.4
	L252.6,531.8H197c-31.5,0-57-25.5-57-57l0-147.8c0-31.5,25.5-57,57-57h55.5l154.3-140.3C416.8,120.6,436.8,108.4,458.1,119.2z"/>
<path class="st0" d="M570.8,278.4l6.8,2C627.9,295.5,660,345.9,660,400c0,54.1-32.1,104.5-82.4,119.6l-6.8,2
	c-15.1,4.5-31-4.1-35.5-19.1l-4.1-13.7c-4.5-15.1,4.1-31,19.1-35.5l6.8-2c15.2-4.5,31.6-23.2,31.6-51.4c0-28.2-16.4-46.8-31.6-51.4
	l-6.8-2c-15.1-4.5-23.6-20.4-19.1-35.5l4.1-13.6C539.8,282.4,555.7,273.9,570.8,278.4z"/>
</svg>
