<?xml version="1.0" encoding="utf-8"?>
<!-- Generator: Adobe Illustrator 28.0.0, SVG Export Plug-In . SVG Version: 6.00 Build 0)  -->
<svg version="1.1" id="Capa_1" xmlns="http://www.w3.org/2000/svg" xmlns:xlink="http://www.w3.org/1999/xlink" x="0px" y="0px"
	 viewBox="0 0 800 800" style="enable-background:new 0 0 800 800;" xml:space="preserve">
<style type="text/css">
	.st0{fill:#360170;}
</style>
<path class="st0" d="M424.3,171c0-13.1-3.5-34.5-23.1-44.4c-20.8-10.5-40.2,1.4-50,10.2L200.9,273.4h-54
	c-30.6,0-55.5,24.8-55.5,55.5l0,143.9c0,30.6,24.8,55.5,55.5,55.5h54.1l150.1,134.9c9.9,8.8,29.2,20.6,50,10.2
	c19.6-9.9,23.1-31.3,23.1-44.4V171z"/>
<path class="st0" d="M544.6,172.4l-6.7-1.9c-14.8-4.1-30.1,4.5-34.2,19.3l-3.7,13.4c-4.1,14.8,4.5,30.1,19.3,34.2l6.7,1.9
	c63.6,17.7,113.4,81.6,113.4,160.8c0,79.2-49.8,143.1-113.4,160.8l-6.7,1.9c-14.8,4.1-23.4,19.4-19.3,34.2l3.7,13.4
	c4.1,14.8,19.4,23.4,34.2,19.3l6.7-1.9c96-26.8,164.1-119.9,164.1-227.6C708.6,292.3,640.5,199.2,544.6,172.4z"/>
<path class="st0" d="M517.4,283.5l-6.6-2c-14.7-4.4-30.1,4-34.5,18.6l-4,13.3c-4.4,14.7,4,30.1,18.6,34.5l6.6,2
	c14.8,4.4,30.7,22.6,30.7,50c0,27.4-15.9,45.6-30.7,50l-6.6,2c-14.7,4.4-23,19.8-18.6,34.5l4,13.3c4.4,14.7,19.8,23,34.5,18.6l6.6-2
	c49-14.7,80.2-63.8,80.2-116.5C597.7,347.3,566.5,298.2,517.4,283.5z"/>
</svg>
