<?xml version="1.0" encoding="utf-8"?>
<!-- Generator: Adobe Illustrator 28.0.0, SVG Export Plug-In . SVG Version: 6.00 Build 0)  -->
<svg version="1.1" id="Capa_1" xmlns="http://www.w3.org/2000/svg" xmlns:xlink="http://www.w3.org/1999/xlink" x="0px" y="0px"
	 viewBox="0 0 800 800" style="enable-background:new 0 0 800 800;" xml:space="preserve">
<style type="text/css">
	.st0{fill:#360170;}
</style>
<path class="st0" d="M411.8,129.6c19.4,9.8,22.9,31,22.9,43.9v453.1c0,13-3.5,34.1-22.9,43.9c-20.6,10.4-39.7-1.3-49.5-10.1
	L213.8,526.9h-53.5c-30.3,0-54.9-24.6-54.9-54.9l0-142.3c0-30.3,24.6-54.9,54.9-54.9h53.4l148.6-135.2
	C372.1,130.9,391.2,119.2,411.8,129.6z"/>
<path class="st0" d="M676.8,500.9c-10.7,10.7-28.1,10.7-38.8,0l-52.4-52.4l-52.4,52.4c-10.7,10.7-28.1,10.7-38.8,0l-9.7-9.7
	c-10.7-10.7-10.7-28.1,0-38.8l52.4-52.4l-52.4-52.4c-10.7-10.7-10.7-28.1,0-38.8l9.7-9.7c10.7-10.7,28.1-10.7,38.8,0l52.4,52.4
	l52.4-52.4c10.7-10.7,28.1-10.7,38.8,0l9.7,9.7c10.7,10.7,10.7,28.1,0,38.8L634.1,400l52.4,52.4c10.7,10.7,10.7,28.1,0,38.8
	L676.8,500.9z"/>
</svg>
