<?xml version="1.0" encoding="utf-8"?>
<!-- Generator: Adobe Illustrator 28.0.0, SVG Export Plug-In . SVG Version: 6.00 Build 0)  -->
<svg version="1.1" id="Capa_1" xmlns="http://www.w3.org/2000/svg" xmlns:xlink="http://www.w3.org/1999/xlink" x="0px" y="0px"
	 viewBox="0 0 640 640" style="enable-background:new 0 0 640 640;" xml:space="preserve">
<style type="text/css">
	.st0{fill:#360170;}
</style>
<path class="st0" d="M320,80c57.4,0,104,46.6,104,104s-46.6,104-104,104s-104-46.6-104-104S262.6,80,320,80z M96,152
	c39.8,0,72,32.2,72,72s-32.2,72-72,72s-72-32.2-72-72S56.2,152,96,152z M0,480c0-70.7,57.3-128,128-128c12.8,0,25.2,1.9,36.9,5.4
	C132,394.2,112,442.8,112,496v16c0,11.4,2.4,22.2,6.7,32H32c-17.7,0-32-14.3-32-32V480z M521.3,544c4.3-9.8,6.7-20.6,6.7-32v-16
	c0-53.2-20-101.8-52.9-138.6c11.7-3.5,24.1-5.4,36.9-5.4c70.7,0,128,57.3,128,128v32c0,17.7-14.3,32-32,32H521.3z M472,224
	c0-39.8,32.2-72,72-72s72,32.2,72,72s-32.2,72-72,72S472,263.8,472,224z M160,496c0-88.4,71.6-160,160-160s160,71.6,160,160v16
	c0,17.7-14.3,32-32,32H192c-17.7,0-32-14.3-32-32V496z"/>
</svg>
